<?xml version="1.0" encoding="UTF-8" standalone="no"?><!DOCTYPE svg PUBLIC "-//W3C//DTD SVG 1.1//EN" "http://www.w3.org/Graphics/SVG/1.1/DTD/svg11.dtd"><svg width="100%" height="100%" viewBox="0 0 375 445" version="1.1" xmlns="http://www.w3.org/2000/svg" xmlns:xlink="http://www.w3.org/1999/xlink" xml:space="preserve" xmlns:serif="http://www.serif.com/" style="fill-rule:evenodd;clip-rule:evenodd;stroke-linejoin:round;stroke-miterlimit:2;"><g id="_0" serif:id="0"><clipPath id="_clip1"><rect id="HATCH" x="0" y="0" width="374.344" height="444.998"/></clipPath><g clip-path="url(#_clip1)"><path d="M264.571,444.998c-4.94,-0 -9.817,-0.112 -10.792,-0.532c-1.8,-0.775 -16.436,-27.452 -45.692,-41.079c-1.885,-0.878 -10.567,-3.048 -3.8,-5.334c89.394,-30.204 113.065,-143.353 38.688,-189.927c-26.959,-16.882 -75.426,-17.414 -99.972,19.495c-3.13,4.707 -2.452,5.013 -5.067,10.059l-1.439,-0.194c-0.154,-0.26 -0.746,0.159 -0.9,-0.101c-0.436,-0.736 4.601,-23.098 16.216,-36.957c22.892,-27.317 70.644,-44.919 127.115,-13.145c67.404,37.925 82.023,132.368 43.664,181.219c-24.855,31.654 -55.952,29.338 -58.194,31.237c-2.523,2.137 -1.505,13.338 4.41,26.899c6.516,14.939 9.98,17.26 7.209,18.211c-0.003,0.001 -5.766,0.15 -11.447,0.15Z" style="fill:#e69952;"/></g><path id="HATCH1" serif:id="HATCH" d="M257.011,0c2.221,0 1.751,4.019 1.763,4.361c0.506,14.108 6.424,91.742 5.88,92.328c-1.251,1.348 -3.37,-1.197 -5.216,-2.857c-0.53,-0.477 -15.248,-13.327 -15.443,-13.468c-3.815,-2.771 -3.2,1.101 -12.755,16.161c-30.519,48.097 -86.83,64.469 -102.729,119.031c-14.124,48.471 8.782,70.562 7.655,72.934c-1.467,3.084 -6.293,-4.746 -9.215,-8.309c-27.19,-33.165 -20,-70.64 -19.237,-77.111c0.585,-3.22 3.839,-21.133 13.953,-38.456c24.863,-42.587 55.918,-52.693 83.228,-102.593c2.745,-5.016 -2.049,-5.013 -3.527,-5.422c-20.121,-5.575 -20.179,-5.265 -21.896,-5.848c-0.393,-0.133 -1.36,-1.63 -1.139,-2.041c0.454,-0.847 0.62,-0.668 10.273,-6.237c1.275,-0.736 63.812,-40.014 66.151,-41.575c0.958,-0.64 1.692,-0.897 2.254,-0.897Z" style="fill:#166773;"/><clipPath id="_clip2"><rect id="HATCH2" serif:id="HATCH" x="0" y="0" width="374.344" height="444.998"/></clipPath><g clip-path="url(#_clip2)"><path d="M3.614,238.717c0.582,0.08 1.18,-0.063 1.761,0.017c1.696,0.233 -0.736,4.964 1.786,15.25c5.48,22.357 15.052,37.524 32.768,52.475c29.421,24.829 79.515,31.71 93.71,26.839c8.65,1.084 17.783,0.201 19.321,0.053c-0.376,3.795 -1.753,2.974 -9.39,6.716c-24.576,12.04 -35.689,9.666 -34.812,13.42c0.168,0.718 35.61,22.953 78.863,8.534c28.113,-9.372 62.946,-41.243 62.137,-88.613c-0.06,-3.508 -0.28,-3.442 -0.99,-6.913c-0.583,-2.762 -2.776,-39.121 -34.134,-53.31c-3.064,-1.387 -5.537,-0.523 -3.958,-3.492c0.771,-1.45 6.644,1.116 14.224,4.031c63.731,24.507 68.695,126.077 -13.664,166.469c-33.89,16.621 -82.342,14.825 -110.867,-19.68c-3.48,-4.21 -4.277,-7.277 -8.042,-7.418c-10.19,-0.381 -46.231,0.799 -74.698,-35.405c-21.062,-26.785 -19.691,-62.259 -14.016,-78.974Z" style="fill:#156771;"/></g><path id="HATCH3" serif:id="HATCH" d="M374.344,265.403c-0,31.942 -15.752,53.286 -15.877,53.282c-0.256,-0.008 -2.119,-1.063 -2.142,-1.184c-0.41,-2.207 1.288,-2.068 1.472,-15.107c0.844,-59.907 -38.456,-103.261 -52.094,-113.942c-29.48,-23.087 -50.5,-27.308 -61.574,-29.78c-4.024,-0.732 -30.7,-5.587 -51.12,0.797c-1.506,0.471 -1.849,0.788 -2.574,-0.627c-0.74,-1.444 3.914,-3.406 13.273,-11.434c32.2,-27.619 29.083,-32.561 34.954,-36.695c3.553,-2.502 85.223,4.511 106.587,78.396c1.532,5.298 2.175,4.992 8.186,13.704c15.846,22.964 20.909,44.48 20.909,62.589Z" style="fill:#ea905d;"/><path id="HATCH4" serif:id="HATCH" d="M94.82,121.034c1.676,-0.883 1.693,-0.755 3.205,-1.922c20.453,-15.786 40.235,-19.359 67.171,-36.505c11.479,-7.307 16.034,-15.135 17.743,-13.093c1.347,1.608 -4.351,7.686 -5.885,9.714c-16.701,22.085 -19.854,19.257 -51.254,55.16c-33.589,38.406 -42.602,88.976 -24.942,129.247c7.749,17.669 13.736,20.057 14.798,26.455c-2.021,-0.368 -6.829,-1.243 -20.73,-15.162c-47.591,-47.649 -35.78,-121.94 -4.467,-148.22c2.803,-2.352 2.934,-2.156 3.088,-2.431c0.567,-1.014 0.704,-2.231 1.271,-3.245Z" style="fill:#dea44b;"/><path id="HATCH5" serif:id="HATCH" d="M94.82,121.034c-0.567,1.014 -0.704,2.231 -1.271,3.245c-0.153,0.274 -0.285,0.078 -3.088,2.431c-31.314,26.28 -43.124,100.57 4.467,148.22c13.902,13.919 18.709,14.794 20.73,15.162c1.178,0.935 1.215,0.812 2.419,1.753c9.859,7.701 9.662,7.939 10.548,8.569c31.324,22.298 46.751,12.539 44.679,18.164c-0.371,1.008 -13.863,1.261 -16.155,1.321c-64.409,1.695 -114.749,-51.872 -119.042,-104.413c-5.799,-70.98 51.005,-92.006 56.712,-94.452Z" style="fill:#176772;"/><path id="HATCH6" serif:id="HATCH" d="M3.614,238.717c3.478,-11.062 -0.18,-22.456 14.787,-46.277c4.822,-7.675 5.502,-7.421 6.178,-7.091c2.476,1.21 -3.943,11.126 0.026,37.018c10.193,66.495 63.365,93.196 72.035,97.55c18.452,9.266 30.627,10.384 34.212,11.958c0.877,0.385 0.587,0.735 1.437,1.169c0.668,0.341 0.718,-0.069 1.35,0.254c-14.195,4.871 -64.289,-2.009 -93.71,-26.839c-17.716,-14.951 -27.288,-30.119 -32.768,-52.475c-2.522,-10.287 -0.09,-15.017 -1.786,-15.25c-0.582,-0.08 -1.18,0.063 -1.761,-0.017Z" style="fill:#ec8968;"/><path id="HATCH7" serif:id="HATCH" d="M248.769,266.496c0.71,3.471 0.93,3.404 0.99,6.913c0.809,47.37 -34.025,79.241 -62.137,88.613c-43.253,14.419 -78.695,-7.816 -78.863,-8.534c-0.878,-3.754 10.236,-1.38 34.812,-13.42c7.637,-3.742 9.014,-2.921 9.39,-6.716c6.829,0.797 48.095,2.546 75.04,-27.811c15.534,-17.501 17.983,-37.428 18.087,-37.528c0.741,-0.711 1.941,-0.805 2.682,-1.516Z" style="fill:#dca44c;"/></g></svg>